<mxfile host="app.diagrams.net" agent="Mozilla/5.0 (X11; Ubuntu; Linux x86_64; rv:139.0) Gecko/20100101 Firefox/139.0" version="27.2.0">
  <diagram name="Page-1" id="vSZzm0c0lSDc5pFVxaaF">
    <mxGraphModel dx="1097" dy="710" grid="1" gridSize="10" guides="1" tooltips="1" connect="1" arrows="1" fold="1" page="1" pageScale="1" pageWidth="850" pageHeight="1100" math="0" shadow="0">
      <root>
        <mxCell id="0" />
        <mxCell id="1" parent="0" />
        <mxCell id="fo6R8_58uPIGh2nn-8rE-60" style="edgeStyle=orthogonalEdgeStyle;rounded=0;orthogonalLoop=1;jettySize=auto;html=1;entryX=1.005;entryY=0.913;entryDx=0;entryDy=0;fillColor=#dae8fc;strokeColor=#6c8ebf;entryPerimeter=0;dashed=1;" parent="1" target="fo6R8_58uPIGh2nn-8rE-28" edge="1">
          <mxGeometry relative="1" as="geometry">
            <mxPoint x="720" y="241" as="sourcePoint" />
            <Array as="points">
              <mxPoint x="720" y="311" />
            </Array>
          </mxGeometry>
        </mxCell>
        <mxCell id="fo6R8_58uPIGh2nn-8rE-26" value="" style="rounded=0;whiteSpace=wrap;html=1;fillColor=none;strokeColor=#6c8ebf;dashed=1;dashPattern=8 8;" parent="1" vertex="1">
          <mxGeometry x="630" y="101" width="181" height="138" as="geometry" />
        </mxCell>
        <mxCell id="fo6R8_58uPIGh2nn-8rE-34" style="edgeStyle=orthogonalEdgeStyle;rounded=0;orthogonalLoop=1;jettySize=auto;html=1;entryX=0;entryY=0.5;entryDx=0;entryDy=0;fillColor=#dae8fc;strokeColor=#6c8ebf;" parent="1" source="fo6R8_58uPIGh2nn-8rE-17" target="fo6R8_58uPIGh2nn-8rE-26" edge="1">
          <mxGeometry relative="1" as="geometry" />
        </mxCell>
        <mxCell id="fo6R8_58uPIGh2nn-8rE-17" value="" style="rounded=0;whiteSpace=wrap;html=1;fillColor=none;strokeColor=#6c8ebf;dashed=1;dashPattern=8 8;" parent="1" vertex="1">
          <mxGeometry x="420" y="101" width="136" height="138" as="geometry" />
        </mxCell>
        <mxCell id="aPNDeGo1sduExx9jBJkK-4" value="Some Entity&lt;br&gt;«Object»" style="rounded=0;whiteSpace=wrap;html=1;fillColor=#dae8fc;strokeColor=#6c8ebf;" parent="1" vertex="1">
          <mxGeometry x="698" y="144" width="100" height="50" as="geometry" />
        </mxCell>
        <mxCell id="fo6R8_58uPIGh2nn-8rE-5" value="" style="rhombus;whiteSpace=wrap;html=1;fillColor=#f8cecc;strokeColor=#b85450;" parent="1" vertex="1">
          <mxGeometry x="641" y="442" width="20" height="20" as="geometry" />
        </mxCell>
        <mxCell id="fo6R8_58uPIGh2nn-8rE-8" value="authentication data" style="text;html=1;align=left;verticalAlign=middle;whiteSpace=wrap;rounded=0;" parent="1" vertex="1">
          <mxGeometry x="666" y="442" width="118" height="20" as="geometry" />
        </mxCell>
        <mxCell id="fo6R8_58uPIGh2nn-8rE-18" value="&lt;div align=&quot;center&quot;&gt;Microservice A&lt;/div&gt;" style="text;html=1;align=center;verticalAlign=middle;whiteSpace=wrap;rounded=0;fillColor=none;fontColor=#6C8EBF;fontStyle=1" parent="1" vertex="1">
          <mxGeometry x="420" y="100" width="100" height="19" as="geometry" />
        </mxCell>
        <mxCell id="fo6R8_58uPIGh2nn-8rE-27" value="&lt;div align=&quot;center&quot;&gt;Microservice B&lt;/div&gt;" style="text;html=1;align=center;verticalAlign=middle;whiteSpace=wrap;rounded=0;fillColor=none;fontColor=#6C8EBF;fontStyle=1" parent="1" vertex="1">
          <mxGeometry x="630" y="100" width="100" height="19" as="geometry" />
        </mxCell>
        <mxCell id="fo6R8_58uPIGh2nn-8rE-32" style="edgeStyle=orthogonalEdgeStyle;rounded=0;orthogonalLoop=1;jettySize=auto;html=1;entryX=0;entryY=0.5;entryDx=0;entryDy=0;fillColor=#dae8fc;strokeColor=#6c8ebf;exitX=1.005;exitY=0.303;exitDx=0;exitDy=0;exitPerimeter=0;" parent="1" source="fo6R8_58uPIGh2nn-8rE-28" target="fo6R8_58uPIGh2nn-8rE-17" edge="1">
          <mxGeometry relative="1" as="geometry" />
        </mxCell>
        <mxCell id="fo6R8_58uPIGh2nn-8rE-28" value="" style="rounded=0;whiteSpace=wrap;html=1;fillColor=none;strokeColor=#6c8ebf;dashed=1;dashPattern=8 8;" parent="1" vertex="1">
          <mxGeometry x="190" y="100" width="150" height="231" as="geometry" />
        </mxCell>
        <mxCell id="fo6R8_58uPIGh2nn-8rE-29" value="Edge-Component" style="text;html=1;align=center;verticalAlign=middle;whiteSpace=wrap;rounded=0;fillColor=none;fontColor=#6C8EBF;fontStyle=1" parent="1" vertex="1">
          <mxGeometry x="194" y="100" width="106" height="19" as="geometry" />
        </mxCell>
        <mxCell id="fo6R8_58uPIGh2nn-8rE-30" value="" style="endArrow=classic;html=1;rounded=0;exitX=1;exitY=0.5;exitDx=0;exitDy=0;fillColor=#dae8fc;strokeColor=#6c8ebf;" parent="1" source="fo6R8_58uPIGh2nn-8rE-36" edge="1">
          <mxGeometry width="50" height="50" relative="1" as="geometry">
            <mxPoint x="134" y="169" as="sourcePoint" />
            <mxPoint x="190" y="170" as="targetPoint" />
          </mxGeometry>
        </mxCell>
        <mxCell id="fo6R8_58uPIGh2nn-8rE-31" value="" style="rhombus;whiteSpace=wrap;html=1;fillColor=#f8cecc;strokeColor=#b85450;direction=south;" parent="1" vertex="1">
          <mxGeometry x="143" y="144" width="20" height="20" as="geometry" />
        </mxCell>
        <mxCell id="fo6R8_58uPIGh2nn-8rE-33" value="" style="rhombus;whiteSpace=wrap;html=1;fillColor=#fff2cc;strokeColor=#d6b656;" parent="1" vertex="1">
          <mxGeometry x="353" y="144" width="20" height="20" as="geometry" />
        </mxCell>
        <mxCell id="fo6R8_58uPIGh2nn-8rE-36" value="Some Client&lt;br&gt;«Subject»" style="rounded=0;whiteSpace=wrap;html=1;fillColor=#dae8fc;strokeColor=#6c8ebf;" parent="1" vertex="1">
          <mxGeometry x="15" y="145" width="100" height="50" as="geometry" />
        </mxCell>
        <mxCell id="fo6R8_58uPIGh2nn-8rE-38" value="signed subject structure" style="text;html=1;align=left;verticalAlign=middle;whiteSpace=wrap;rounded=0;" parent="1" vertex="1">
          <mxGeometry x="666" y="471" width="145" height="20" as="geometry" />
        </mxCell>
        <mxCell id="fo6R8_58uPIGh2nn-8rE-46" value="" style="rhombus;whiteSpace=wrap;html=1;fillColor=#fff2cc;strokeColor=#d6b656;" parent="1" vertex="1">
          <mxGeometry x="641" y="471" width="20" height="20" as="geometry" />
        </mxCell>
        <mxCell id="fo6R8_58uPIGh2nn-8rE-49" value="" style="endArrow=open;html=1;rounded=0;endFill=0;" parent="1" edge="1">
          <mxGeometry width="50" height="50" relative="1" as="geometry">
            <mxPoint x="167" y="153.97" as="sourcePoint" />
            <mxPoint x="182" y="153.97" as="targetPoint" />
          </mxGeometry>
        </mxCell>
        <mxCell id="fo6R8_58uPIGh2nn-8rE-50" value="" style="endArrow=open;html=1;rounded=0;endFill=0;" parent="1" edge="1">
          <mxGeometry width="50" height="50" relative="1" as="geometry">
            <mxPoint x="377" y="153.84" as="sourcePoint" />
            <mxPoint x="392" y="153.84" as="targetPoint" />
          </mxGeometry>
        </mxCell>
        <mxCell id="fo6R8_58uPIGh2nn-8rE-53" value="" style="rhombus;whiteSpace=wrap;html=1;fillColor=#fff2cc;strokeColor=#d6b656;" parent="1" vertex="1">
          <mxGeometry x="570" y="144" width="20" height="20" as="geometry" />
        </mxCell>
        <mxCell id="fo6R8_58uPIGh2nn-8rE-54" value="" style="endArrow=open;html=1;rounded=0;endFill=0;" parent="1" edge="1">
          <mxGeometry width="50" height="50" relative="1" as="geometry">
            <mxPoint x="599" y="153.86" as="sourcePoint" />
            <mxPoint x="614" y="153.86" as="targetPoint" />
          </mxGeometry>
        </mxCell>
        <mxCell id="fo6R8_58uPIGh2nn-8rE-55" style="edgeStyle=orthogonalEdgeStyle;rounded=0;orthogonalLoop=1;jettySize=auto;html=1;entryX=0.5;entryY=0;entryDx=0;entryDy=0;fillColor=#dae8fc;strokeColor=#6c8ebf;startArrow=none;startFill=0;dashed=1;" parent="1" target="ySy-ttYXcyeQMoxVHM1Y-1" edge="1">
          <mxGeometry relative="1" as="geometry">
            <mxPoint x="250.5" y="332" as="sourcePoint" />
            <mxPoint x="250.5" y="415" as="targetPoint" />
          </mxGeometry>
        </mxCell>
        <mxCell id="fo6R8_58uPIGh2nn-8rE-56" value="" style="rhombus;whiteSpace=wrap;html=1;fillColor=#f8cecc;strokeColor=#b85450;" parent="1" vertex="1">
          <mxGeometry x="257.5" y="346" width="20" height="20" as="geometry" />
        </mxCell>
        <mxCell id="fo6R8_58uPIGh2nn-8rE-57" value="" style="endArrow=open;html=1;rounded=0;endFill=0;" parent="1" edge="1">
          <mxGeometry width="50" height="50" relative="1" as="geometry">
            <mxPoint x="267.44000000000005" y="371" as="sourcePoint" />
            <mxPoint x="267.44000000000005" y="386" as="targetPoint" />
          </mxGeometry>
        </mxCell>
        <mxCell id="fo6R8_58uPIGh2nn-8rE-61" value="" style="rhombus;whiteSpace=wrap;html=1;fillColor=#fff2cc;strokeColor=#d6b656;flipV=1;" parent="1" vertex="1">
          <mxGeometry x="693" y="260" width="20" height="20" as="geometry" />
        </mxCell>
        <mxCell id="fo6R8_58uPIGh2nn-8rE-62" value="" style="endArrow=open;html=1;rounded=0;endFill=0;" parent="1" edge="1">
          <mxGeometry width="50" height="50" relative="1" as="geometry">
            <mxPoint x="702.94" y="283.9999999999998" as="sourcePoint" />
            <mxPoint x="702.94" y="298.9999999999998" as="targetPoint" />
          </mxGeometry>
        </mxCell>
        <mxCell id="fo6R8_58uPIGh2nn-8rE-63" value="signed subject structure verification" style="shape=callout;whiteSpace=wrap;html=1;perimeter=calloutPerimeter;base=16;size=30;position=0.75;position2=1;flipV=0;fillColor=#ffe6cc;strokeColor=#d79b00;" parent="1" vertex="1">
          <mxGeometry x="581" y="185" width="120" height="70" as="geometry" />
        </mxCell>
        <mxCell id="fo6R8_58uPIGh2nn-8rE-64" value="1" style="ellipse;whiteSpace=wrap;html=1;aspect=fixed;" parent="1" vertex="1">
          <mxGeometry x="143" y="119" width="20" height="20" as="geometry" />
        </mxCell>
        <mxCell id="fo6R8_58uPIGh2nn-8rE-65" value="4" style="ellipse;whiteSpace=wrap;html=1;aspect=fixed;" parent="1" vertex="1">
          <mxGeometry x="353" y="119" width="20" height="20" as="geometry" />
        </mxCell>
        <mxCell id="fo6R8_58uPIGh2nn-8rE-66" value="2" style="ellipse;whiteSpace=wrap;html=1;aspect=fixed;" parent="1" vertex="1">
          <mxGeometry x="280" y="414" width="20" height="20" as="geometry" />
        </mxCell>
        <mxCell id="fo6R8_58uPIGh2nn-8rE-68" value="6" style="ellipse;whiteSpace=wrap;html=1;aspect=fixed;" parent="1" vertex="1">
          <mxGeometry x="590" y="124" width="20" height="20" as="geometry" />
        </mxCell>
        <mxCell id="fo6R8_58uPIGh2nn-8rE-69" value="7" style="ellipse;whiteSpace=wrap;html=1;aspect=fixed;" parent="1" vertex="1">
          <mxGeometry x="685" y="178" width="20" height="20" as="geometry" />
        </mxCell>
        <mxCell id="_uC_OFgqSUIaIrw_m8E7-2" style="edgeStyle=orthogonalEdgeStyle;rounded=0;orthogonalLoop=1;jettySize=auto;html=1;entryX=1;entryY=0.75;entryDx=0;entryDy=0;fillColor=#dae8fc;strokeColor=#6c8ebf;exitX=0.5;exitY=1;exitDx=0;exitDy=0;dashed=1;" parent="1" source="fo6R8_58uPIGh2nn-8rE-17" target="fo6R8_58uPIGh2nn-8rE-28" edge="1">
          <mxGeometry relative="1" as="geometry">
            <mxPoint x="730" y="251" as="sourcePoint" />
            <Array as="points">
              <mxPoint x="466" y="273" />
            </Array>
            <mxPoint x="315" y="321" as="targetPoint" />
          </mxGeometry>
        </mxCell>
        <mxCell id="_uC_OFgqSUIaIrw_m8E7-3" value="" style="rhombus;whiteSpace=wrap;html=1;fillColor=#fff2cc;strokeColor=#d6b656;" parent="1" vertex="1">
          <mxGeometry x="431" y="250" width="20" height="20" as="geometry" />
        </mxCell>
        <mxCell id="_uC_OFgqSUIaIrw_m8E7-4" value="" style="endArrow=open;html=1;rounded=0;endFill=0;" parent="1" edge="1">
          <mxGeometry width="50" height="50" relative="1" as="geometry">
            <mxPoint x="426" y="259.86" as="sourcePoint" />
            <mxPoint x="411" y="259.86" as="targetPoint" />
          </mxGeometry>
        </mxCell>
        <mxCell id="_uC_OFgqSUIaIrw_m8E7-5" value="signed subject structure verification" style="shape=callout;whiteSpace=wrap;html=1;perimeter=calloutPerimeter;base=16;size=30;position=0.75;position2=1;flipV=1;fillColor=#ffe6cc;strokeColor=#d79b00;flipH=1;" parent="1" vertex="1">
          <mxGeometry x="470" y="250" width="120" height="70" as="geometry" />
        </mxCell>
        <mxCell id="_uC_OFgqSUIaIrw_m8E7-6" value="5" style="ellipse;whiteSpace=wrap;html=1;aspect=fixed;flipH=1;" parent="1" vertex="1">
          <mxGeometry x="465" y="282" width="20" height="20" as="geometry" />
        </mxCell>
        <mxCell id="_uC_OFgqSUIaIrw_m8E7-9" value="" style="curved=1;endArrow=none;html=1;rounded=0;dashed=1;dashPattern=8 8;startFill=0;fillColor=#f8cecc;strokeColor=#b85450;startSize=9;endSize=8;strokeWidth=2;" parent="1" edge="1">
          <mxGeometry width="50" height="50" relative="1" as="geometry">
            <mxPoint x="100" y="52" as="sourcePoint" />
            <mxPoint x="100" y="322" as="targetPoint" />
            <Array as="points">
              <mxPoint x="130" y="122" />
              <mxPoint x="140" y="192" />
              <mxPoint x="120" y="294" />
            </Array>
          </mxGeometry>
        </mxCell>
        <mxCell id="ySy-ttYXcyeQMoxVHM1Y-1" value="&lt;b&gt;Verifier&lt;/b&gt;" style="rounded=1;whiteSpace=wrap;html=1;fillColor=#d5e8d4;strokeColor=#82b366;arcSize=4;" parent="1" vertex="1">
          <mxGeometry x="193.5" y="414" width="116" height="70" as="geometry" />
        </mxCell>
        <mxCell id="fo6R8_58uPIGh2nn-8rE-58" value="authentication data verification" style="shape=callout;whiteSpace=wrap;html=1;perimeter=calloutPerimeter;base=16;size=30;position=0.75;position2=1;flipV=1;fillColor=#ffe6cc;strokeColor=#d79b00;flipH=1;" parent="1" vertex="1">
          <mxGeometry x="280" y="366" width="120" height="70" as="geometry" />
        </mxCell>
        <mxCell id="ySy-ttYXcyeQMoxVHM1Y-2" value="2" style="ellipse;whiteSpace=wrap;html=1;aspect=fixed;" parent="1" vertex="1">
          <mxGeometry x="380" y="381" width="20" height="20" as="geometry" />
        </mxCell>
        <mxCell id="gJYL38P5y1MsWXwlM_N6-2" value="&lt;b&gt;Edge-Proxy&lt;/b&gt;" style="rounded=1;whiteSpace=wrap;html=1;fillColor=#d5e8d4;strokeColor=#82b366;arcSize=4;" vertex="1" parent="1">
          <mxGeometry x="200" y="144" width="70" height="46" as="geometry" />
        </mxCell>
        <mxCell id="gJYL38P5y1MsWXwlM_N6-3" value="&lt;b&gt;STS&lt;/b&gt;" style="rounded=1;whiteSpace=wrap;html=1;fillColor=#d5e8d4;strokeColor=#82b366;arcSize=4;" vertex="1" parent="1">
          <mxGeometry x="280" y="144" width="50" height="46" as="geometry" />
        </mxCell>
        <mxCell id="gJYL38P5y1MsWXwlM_N6-4" value="&lt;b&gt;Verifier&lt;/b&gt;" style="rounded=1;whiteSpace=wrap;html=1;fillColor=#d5e8d4;strokeColor=#82b366;arcSize=4;" vertex="1" parent="1">
          <mxGeometry x="280" y="253" width="50" height="70" as="geometry" />
        </mxCell>
        <mxCell id="fo6R8_58uPIGh2nn-8rE-59" value="issuance of the signed subject structure" style="shape=callout;whiteSpace=wrap;html=1;perimeter=calloutPerimeter;base=20;size=40;position=0.67;position2=1;flipV=1;fillColor=#ffe6cc;strokeColor=#d79b00;" parent="1" vertex="1">
          <mxGeometry x="163" y="175" width="120" height="90" as="geometry" />
        </mxCell>
        <mxCell id="_uC_OFgqSUIaIrw_m8E7-1" value="3" style="ellipse;whiteSpace=wrap;html=1;aspect=fixed;" parent="1" vertex="1">
          <mxGeometry x="157" y="233" width="20" height="20" as="geometry" />
        </mxCell>
      </root>
    </mxGraphModel>
  </diagram>
</mxfile>
